{"title":"Need For Speed (2014) R6 WEBRip [P2PDL]","uid":9939947,"size":546377125,"categoryP":"video","categoryS":"movies","magnet":"?xt=urn:btih:3b12282e5f523474fb44f9d1bbc1e58b87b2f3f5&amp;dn=Need+For+Speed+%282014%29+R6+WEBRip+%5BP2PDL%5D&amp;tr=udp%3A%2F%2Ftracker.openbittorrent.com%3A80&amp;tr=udp%3A%2F%2Fopen.demonii.com%3A1337&amp;tr=udp%3A%2F%2Ftracker.coppersurfer.tk%3A6969&amp;tr=udp%3A%2F%2Fexodus.desync.com%3A6969","seeders":4,"leechers":0,"uploader":"TeX","files":1,"time":1397223738,"description":" &lt;a href=&quot;http://i.imgur.com/6NveIrH.jpg&quot; rel=&quot;nofollow&quot; target=&quot;_NEW&quot;&gt;http://i.imgur.com/6NveIrH.jpg&lt;/a&gt;\n\nFormat : RealMedia\n\n\nFile size : 521 MiB\nDuration : 2h 10mn\nOverall bit rate : 547 Kbps\nMovie name : VTS_01_1-rmyy\n\nVideo\nID : 1\nFormat : RealVideo 4\nCodec ID : RV40\nCodec ID/Info : Based on AVC (H.264), Real Player 9\nDuration : 2h 10mn\nBit rate : 451 Kbps\nWidth : 720 pixels\nHeight : 408 pixels\nDisplay aspect ratio : 16:9\nFrame rate : 29.970 fps\nBits/(Pixel*Frame) : 0.051\nStream size : 421 MiB (81%)\n\nAudio\nID : 0\nFormat : AAC\nFormat/Info : Advanced Audio Codec\nFormat profile : LC\nCodec ID : raac\nCodec ID/Info : Real Player 9\nDuration : 2h 10mn\nBit rate : 96.0 Kbps\nChannel(s) : 2 channels\nSampling rate : 44.1 KHz\nBit depth : 16 bits\nCompression mode : Lossy\nStream size : 89.7 MiB (17%)\n &lt;a href=&quot;\nhttp://i.imgur.com/qIumSu7.jpg&quot; rel=&quot;nofollow&quot; target=&quot;_NEW&quot;&gt;\nhttp://i.imgur.com/qIumSu7.jpg&lt;/a&gt; &lt;a href=&quot;\nhttp://i.imgur.com/VklmlQ3.jpghttp://i.imgur.com/c0CkQKY.jpg&quot; rel=&quot;nofollow&quot; target=&quot;_NEW&quot;&gt;\nhttp://i.imgur.com/VklmlQ3.jpghttp://i.imgur.com/c0CkQKY.jpg&lt;/a&gt;\n","torrent":{"xt":"urn:btih:3b12282e5f523474fb44f9d1bbc1e58b87b2f3f5","amp;dn":"Need+For+Speed+%282014%29+R6+WEBRip+%5BP2PDL%5D","amp;tr":["udp%3A%2F%2Ftracker.openbittorrent.com%3A80","udp%3A%2F%2Fopen.demonii.com%3A1337","udp%3A%2F%2Ftracker.coppersurfer.tk%3A6969","udp%3A%2F%2Fexodus.desync.com%3A6969"],"infoHash":"3b12282e5f523474fb44f9d1bbc1e58b87b2f3f5","infoHashBuffer":{"type":"Buffer","data":[59,18,40,46,95,82,52,116,251,68,249,209,187,193,229,139,135,178,243,245]},"announce":[],"urlList":[]}}